<svg viewBox="0 0 908 100" fill="none" xmlns="http://www.w3.org/2000/svg">
<path d="M373.155 91.0232V44.0115L352.51 91.0232H341.136L320.603 44.0707V91.0232H304.901V9.35987H323.252L347.044 63.1628L370.836 9.35987H389.186V91.0232H373.155Z" fill="#000"/>
<path fill-rule="evenodd" clip-rule="evenodd" d="M464.204 91.0232L456.426 71.1081H427.135L419.357 91.0232H402.547L433.616 9.35987H450.165L481.233 91.0232H464.204ZM441.726 31.6951L432.603 55.502H450.849L441.726 31.6951Z" fill="#000"/>
<path d="M545.449 91.0232L510.446 40.6412V91.0232H494.525V9.35987H509.361L543.826 58.5123V9.35987H559.637V91.0232H545.449Z" fill="#000"/>
<path d="M582.436 91.0232V9.35987H598.686V91.0232H582.436Z" fill="#000"/>
<path d="M621.453 91.0232V9.35987H675.171V24.8571H637.703V43.7488H671.008V59.3549H637.703V91.0232H621.453Z" fill="#000"/>
<path fill-rule="evenodd" clip-rule="evenodd" d="M690.386 76.0914L690.38 76.0627C689.196 70.7332 688.656 62.0244 688.656 50.1916C688.656 38.3629 689.196 29.683 690.382 24.4188L690.386 24.4008L690.39 24.3829C691.768 18.5657 695.041 14.2054 700.251 11.7537C705.155 9.4462 712.911 8.48926 722.965 8.48926C732.944 8.48926 740.658 9.44588 745.56 11.7493C750.839 14.1945 754.13 18.5575 755.435 24.4019C756.701 29.6933 757.274 38.3843 757.274 50.1916C757.274 62.014 756.699 70.7385 755.434 76.0933C754.124 81.8826 750.822 86.1965 745.56 88.6337C740.658 90.9372 732.944 91.8939 722.965 91.8939C712.911 91.8939 705.155 90.9369 700.251 88.6294C695.059 86.1866 691.777 81.8779 690.393 76.12L690.386 76.0914ZM722.965 76.3966C730.469 76.3966 734.934 75.8977 736.926 75.1832C738.039 74.784 739.23 73.7156 739.893 70.6001C740.613 67.2227 741.024 60.5234 741.024 50.1916C741.024 39.8597 740.613 33.1604 739.893 29.783C739.23 26.6675 738.039 25.5991 736.926 25.1999C734.934 24.4854 730.469 23.9865 722.965 23.9865C715.492 23.9865 710.971 24.4804 708.882 25.2046C707.773 25.6075 706.588 26.6797 705.927 29.783C705.208 33.1604 704.796 39.8597 704.796 50.1916C704.796 60.5234 705.208 67.2227 705.927 70.6001C706.588 73.7035 707.773 74.7757 708.882 75.1785C710.972 75.9027 715.492 76.3966 722.965 76.3966Z" fill="#000"/>
<path d="M777.482 9.35987H793.732V75.1995H828.9V91.0232H777.482V9.35987Z" fill="#000"/>
<path fill-rule="evenodd" clip-rule="evenodd" d="M844.102 9.35987H871.509C881.973 9.35987 889.975 10.2784 894.993 12.4676C900.351 14.7305 903.77 18.9342 905.174 24.6871C906.448 29.9092 907.023 38.5076 907.023 50.1916C907.023 61.8755 906.448 70.4739 905.174 75.696C903.77 81.4498 900.355 85.6773 895.015 88.0149L894.992 88.0247L894.97 88.0341C889.973 90.1375 881.984 91.0232 871.509 91.0232H844.102V9.35987ZM889.561 30.448L889.553 30.4169C888.895 27.69 887.672 26.5902 886.108 26.1355L886.06 26.1215L886.012 26.106C883.679 25.3528 878.51 24.8571 869.975 24.8571H860.352V75.526H869.975C878.552 75.526 883.787 75.0726 886.17 74.3706C887.802 73.8487 889.016 72.6866 889.664 70.0705C890.432 66.8878 890.883 60.3838 890.883 50.1916C890.883 40.0673 890.393 33.6277 889.569 30.479L889.561 30.448Z" fill="#000"/>
<path d="M0 0.00891588L34.1157 34.1246L155.546 34.1184L122.011 67.6534L105.681 51.3232H52.3699L101.047 100H154.358L137.149 82.7914H160.184L208.86 34.1157H208.861V34.1146H208.86L174.745 0L0 0.00891588Z" fill="#000"/>
</svg>