<svg xmlns="http://www.w3.org/2000/svg" viewBox="0 0 1354.2 582.2">
    <path d="M127.09 399.05c-23.31 0-44.59-5.42-63.82-16.28-19.24-10.85-34.6-26.23-46.06-46.16C5.73 316.69 0 293.56 0 267.23c0-24.54 5.73-46.78 17.21-66.7 11.46-19.92 26.82-35.75 46.06-47.5 19.23-11.74 40.51-17.61 63.82-17.61s44.68 5.87 64.1 17.61c19.43 11.74 34.97 27.58 46.62 47.5 11.65 19.93 17.48 42.16 17.48 66.7 0 25.97-5.83 48.92-17.48 68.85s-27.19 35.4-46.62 46.43c-19.42 11.03-40.79 16.54-64.1 16.54Zm0-61.61c9.99 0 18.77-2.92 26.36-8.78 7.58-5.84 13.6-14.02 18.04-24.51 4.44-10.49 6.66-22.8 6.66-36.92 0-15.14-2.22-27.87-6.66-38.2-4.44-10.32-10.46-18.24-18.04-23.74-7.59-5.51-16.37-8.26-26.36-8.26-9.25 0-17.67 2.76-25.25 8.26-7.59 5.51-13.6 13.42-18.04 23.74-4.44 10.33-6.66 23.06-6.66 38.2 0 14.12 2.12 26.42 6.38 36.92 4.25 10.49 10.17 18.67 17.76 24.51 7.58 5.85 16.18 8.78 25.81 8.78Zm274.45 58.28c-7.96-2.22-15.54-5.73-22.75-10.54-7.22-4.8-13.79-10.73-19.7-17.76l-8.33 27.2H288.6V25.53h83.25v6.23c-1.86 2.27-3.05 4.73-3.61 7.36-.55 2.65-.83 7.18-.83 13.6v111.56c3.69-4.44 7.77-8.41 12.21-11.93 4.44-3.51 9.34-6.56 14.71-9.16 5.36-2.58 11-4.53 16.93-5.83 5.91-1.29 12.02-1.94 18.31-1.94 15.9.36 30.25 3.21 43.01 8.54 12.76 5.34 23.67 13.25 32.75 23.74 9.06 10.49 16.09 23.57 21.09 39.22 5 15.66 7.49 33.99 7.49 54.97 0 23.48-2.77 43.85-8.32 61.1-5.55 17.26-13.23 31.49-23.03 42.69-9.81 11.2-21.28 19.56-34.41 25.08-13.14 5.52-27.29 8.27-42.46 8.27-8.14 0-16.19-1.11-24.14-3.33Zm26.36-58.28c5.91-2.59 11-6.74 15.26-12.44 4.25-5.71 7.58-13.14 9.99-22.29 2.4-9.16 3.61-20.14 3.61-32.93 0-11.75-1.02-22.38-3.05-31.89-2.04-9.5-5-17.72-8.88-24.64-3.89-6.91-8.79-12.27-14.71-16.07-5.92-3.8-12.77-5.71-20.54-5.71-9.25 0-16.93 2.77-23.03 8.3s-10.64 13.65-13.6 24.37c-2.97 10.72-4.63 24.02-5 39.92 0 13.14.83 24.54 2.5 34.22s4.25 17.72 7.77 24.12c3.51 6.4 7.77 11.15 12.77 14.26 4.99 3.11 10.82 4.67 17.48 4.67 7.02 0 13.5-1.29 19.42-3.88Zm171.22 141.8c-14.62-7.21-28.22-17.67-40.79-31.36l42.18-55.5 3.33-3.89 5 3.33c.74 2.96 1.39 6.01 1.94 9.16.56 3.14 2.68 7.12 6.38 11.93 4.07 4.07 8.6 7.3 13.6 9.71 5 2.4 11 3.61 18.04 3.61 8.51 0 15.07-1.6 19.7-4.77 4.62-3.18 7.77-8.04 9.43-14.58 1.67-6.54 2.5-14.4 2.5-23.59V202.02h-87.14v-61.05h166.5v235.96c0 26.93-5.37 48.75-16.09 65.46-10.74 16.7-24.52 28.82-41.35 36.37-16.84 7.54-34.69 11.31-53.56 11.31s-35.06-3.61-49.67-10.82ZM714.84 87.69c-12.96 0-23.96-4.34-33.02-13.04-9.07-8.69-13.6-18.96-13.6-30.8 0-12.95 4.34-23.49 13.04-31.64C689.95 4.08 701.14 0 714.84 0c12.21 0 23.03 4.35 32.47 13.04 9.44 8.7 14.15 18.97 14.15 30.8s-4.72 22.11-14.15 30.8c-9.43 8.7-20.26 13.04-32.47 13.04Zm222 199.06-12.77 13.01v94.84h-78.81V25.53h83.25v6.06c-1.86 2.21-3.05 4.6-3.61 7.17-.56 2.58-.83 6.99-.83 13.23v163.77l80.48-79.23c3.33.75 7.02 1.39 11.1 1.94 4.07.55 8.13 1.02 12.21 1.39 4.07.37 7.86.65 11.38.83 3.51.19 6.19.28 8.05.28h40.52l-99.9 98.63 111 154.45-84.36 2.77-77.7-110.07Zm190.36-145.78h209.79l-1.11 61.05h-209.79l1.11-61.05Zm99.9 251.88c-11.47-4.13-21.28-11.13-29.42-21s-14.25-23.42-18.32-40.66c-4.08-17.23-5.55-39.14-4.44-65.71l7.77-183.12 79.92-10.23 5-.54.56 5.89c-1.48 2.5-2.97 4.99-4.44 7.48-1.48 2.5-2.41 6.78-2.78 12.83l-6.66 82.37h3.33l-4.44 80.24c-1.11 20.33-.28 36.11 2.5 47.34 2.78 11.24 6.84 18.99 12.21 23.27 5.36 4.28 11 6.42 16.93 6.42 11.46 0 21.92-2.4 31.36-7.21 9.44-4.8 17.67-10.17 24.7-16.09l13.32 54.94c-12.58 9.25-26.18 16.56-40.79 21.92-14.62 5.36-30.8 8.05-48.56 8.05-13.69 0-26.28-2.06-37.74-6.19ZM754.59 582.2c-5.92 0-10.92-2.04-14.98-6.1-4.07-4.07-6.11-8.97-6.11-14.71s2.03-10.64 6.11-14.71c4.07-4.07 9.06-6.11 14.98-6.11s10.64 2.04 14.71 6.11 6.1 8.98 6.1 14.71-2.04 10.64-6.1 14.71c-4.07 4.07-8.98 6.1-14.71 6.1Zm123.35-4.86c-8.05-3.24-15.08-7.74-21.09-13.51-6.01-5.76-10.68-12.6-14.01-20.53-3.33-7.92-5-16.65-5-26.2s1.67-17.83 5-25.93c3.33-8.1 8-15.17 14.01-21.2 6.01-6.03 13.04-10.81 21.09-14.32s16.88-5.27 26.5-5.27c11.84 0 22.2 2.22 31.08 6.66 8.88 4.44 15.91 10.54 21.09 18.32l-17.48 19.15-1.67 1.94-2.22-1.67c0-1.48-.19-3-.55-4.58-.37-1.57-1.57-3.47-3.61-5.69-3.52-3.51-7.4-5.87-11.66-7.08-4.26-1.2-9.16-1.8-14.71-1.8-4.63 0-9.02.93-13.18 2.79-4.16 1.86-7.91 4.52-11.24 7.97s-5.92 7.75-7.77 12.88c-1.85 5.14-2.77 11.07-2.77 17.8 0 6.03.97 11.47 2.91 16.34 1.94 4.87 4.53 9.04 7.77 12.49 3.23 3.45 7.03 6.11 11.38 7.97 4.34 1.86 8.92 2.79 13.74 2.79 3.89 0 7.67-.56 11.38-1.67 3.7-1.11 7.35-2.82 10.96-5.13 3.61-2.31 6.98-5.41 10.13-9.3l17.48 19.98c-6.85 7.59-14.8 13.09-23.87 16.51-9.07 3.42-18.22 5.13-27.47 5.13s-18.18-1.62-26.22-4.86Zm156.93 4.86c-11.47 0-21.88-2.76-31.22-8.27-9.34-5.52-16.7-13.24-22.06-23.19-5.37-9.94-8.05-21.42-8.05-34.45s2.68-23.68 8.05-33.63c5.36-9.95 12.72-17.81 22.06-23.6 9.34-5.78 19.75-8.68 31.22-8.68s22.15 2.9 31.5 8.68c9.34 5.78 16.74 13.65 22.2 23.6 5.45 9.95 8.19 21.15 8.19 33.63s-2.73 24.5-8.19 34.45c-5.46 9.95-12.86 17.67-22.2 23.19-9.34 5.51-19.84 8.27-31.5 8.27Zm0-24.97c6.1 0 11.38-1.74 15.82-5.22 4.44-3.48 8-8.29 10.68-14.44 2.68-6.15 4.02-13.24 4.02-21.27s-1.34-15.6-4.02-21.66c-2.68-6.06-6.24-10.74-10.68-14.04s-9.71-4.95-15.82-4.95c-5.55 0-10.59 1.65-15.12 4.95-4.54 3.3-8.14 7.98-10.82 14.04-2.68 6.06-4.02 13.29-4.02 21.66s1.29 15.12 3.88 21.27 6.15 10.97 10.68 14.44c4.53 3.48 9.67 5.22 15.4 5.22Zm77.98 22.75V453.16h26.36v9.71c2.22-2.96 4.53-5.36 6.94-7.21 2.4-1.85 4.95-3.19 7.63-4.02 2.68-.83 5.32-1.25 7.91-1.25 3.14 0 6.1.51 8.88 1.53 2.78 1.02 5.32 2.68 7.63 5 2.31 2.32 4.12 5.32 5.41 9.02 2.03-3.51 4.34-6.43 6.94-8.74 2.59-2.31 5.59-4.02 9.02-5.13 3.42-1.11 7.17-1.67 11.24-1.67 4.81 0 8.88.82 12.21 2.45 3.33 1.63 6.06 3.99 8.19 7.08 2.12 3.09 3.65 6.9 4.58 11.43.92 4.54 1.39 9.62 1.39 15.25v93.38h-27.19v-86.51c0-5.42-.28-9.63-.83-12.61-.55-2.98-1.39-5.06-2.5-6.24-1.11-1.17-2.59-1.76-4.44-1.76-2.41 0-4.72 1.13-6.94 3.39-2.22 2.26-4.02 5.34-5.41 9.22s-2.08 8.45-2.08 13.69v80.81h-25.53v-85.7c0-8.68-.65-14.46-1.94-17.36-1.3-2.89-3.7-4.34-7.21-4.34-1.67 0-3.29.55-4.86 1.63-1.57 1.08-2.96 2.67-4.16 4.74-1.21 2.08-2.18 4.7-2.91 7.87-.74 3.17-1.11 6.73-1.11 10.71v82.44h-27.19Z"/>
</svg>
